<?xml version="1.0" encoding="utf-8"?>
<svg xmlns="http://www.w3.org/2000/svg" height="48" width="48" viewBox="0 0 48 48">
  <g>
    <path id="path1" transform="rotate(0,24,24) translate(15.265625,11) scale(0.8125,0.8125)  " fill="#FFFFFF" d="M15.199951,5.7999878L21.5,5.7999878 21.5,32 3.5,32C8.3999634,30.100006,14.599976,27,15,24.100006L15,23.899994 15.199951,23.899994z M0,5.7999878L0.099975586,5.7999878 4.5999756,5.7999878 4.6999512,19.399994C4.6999512,19.399994 10.599976,21 11,23.799988 11.399963,26.299988 4.5999756,29 0,30.100006z M6.8999634,0C10.5,0.70001221,12.699951,3.6000061,13.099976,4.2000122L13.099976,22.5C12,18.100006,7,17.899994,7,17.899994z" />
  </g>
</svg>

