<?xml version="1.0" encoding="utf-8"?>
<svg xmlns="http://www.w3.org/2000/svg" height="256" width="256" viewBox="0 0 256 256">
  <g>
    <path id="path1" transform="rotate(0,128,128) translate(59,59.0000041127205) scale(4.3125,4.3125)  " fill="#AEAEAE" d="M10.000005,5.800034C11.987985,5.800034 13.599968,7.4120317 13.599968,9.4000278 13.599968,11.388025 11.987985,13.000022 10.000005,13.000022 8.0120255,13.000022 6.4000419,11.388025 6.4000421,9.4000278 6.4000419,7.4120317 8.0120255,5.800034 10.000005,5.800034z M2,2L2,27.839986 10.200008,18.000022 13.40002,21.000019 6.3565235,29.999999 7.0630164,29.999999 20.799991,12.200017 30,27.58917 30,2z M0,0L32,0 32,31.999999 0,31.999999z" />
  </g>
</svg>

