<?xml version="1.0" encoding="utf-8"?>
<svg xmlns="http://www.w3.org/2000/svg" height="256" width="256" viewBox="0 0 256 256">
  <g>
    <ellipse cy="128" cx="128" ry="128" rx="128" fill="rgba(154,47,55,.8)" />
    <path id="path1" transform="rotate(0,128,128) translate(84.4437483549118,59) scale(4.3125,4.3125)  " fill="#FFFFFF" d="M10.1,5C7.200008,5 4.8999911,7.1999969 4.8999911,10 4.8999911,12.800003 7.200008,15 10.1,15 12.999992,15 15.300009,12.800003 15.300009,10 15.300009,7.3000031 12.899986,5 10.1,5z M10.1,0C15.700003,0 20.2,4.3000031 20.2,9.6999969 20.2,11.600006 19.599994,13.300003 18.700002,14.800003L14.499991,23.300003 10.1,32 5.800015,23.300003 1.6000052,14.800003C0.60000567,13.300003 -4.7890353E-08,11.600006 0,9.6999969 -4.7890353E-08,4.3000031 4.4999972,0 10.1,0z" />
  </g>
</svg>

