<?xml version="1.0" standalone="no"?>
<!DOCTYPE svg PUBLIC "-//W3C//DTD SVG 20010904//EN"
 "http://www.w3.org/TR/2001/REC-SVG-20010904/DTD/svg10.dtd">
<svg version="1.0" xmlns="http://www.w3.org/2000/svg"
 width="900.000000pt" height="900.000000pt" viewBox="0 0 900.000000 900.000000"
 preserveAspectRatio="xMidYMid meet">
<metadata>
Created by potrace 1.11, written by Peter Selinger 2001-2013
</metadata>
<g transform="translate(0.000000,900.000000) scale(0.100000,-0.100000)"
fill="#000000" stroke="none">
<path d="M4215 7440 c4 -6 -36 -10 -102 -10 -73 0 -113 -4 -122 -12 -11 -10
-12 -10 -7 -1 5 9 2 11 -8 7 -9 -3 -14 -9 -12 -13 2 -3 -19 -7 -47 -7 -64 -2
-107 -7 -107 -14 0 -3 -12 -5 -27 -4 -34 1 -55 -5 -48 -16 2 -4 -7 -5 -20 -2
-14 2 -32 -1 -40 -8 -12 -10 -15 -10 -15 1 0 10 -2 11 -8 2 -4 -7 -23 -14 -42
-16 -19 -2 -44 -8 -55 -13 -11 -6 -27 -10 -35 -9 -8 0 -21 -5 -28 -12 -7 -7
-19 -10 -27 -7 -8 4 -18 -1 -21 -10 -3 -9 -10 -13 -15 -10 -13 7 -61 -24 -55
-35 3 -5 -12 -5 -33 -1 -29 5 -38 4 -35 -5 3 -6 -1 -12 -8 -13 -7 0 -22 -3
-33 -6 -11 -2 -24 -5 -28 -5 -5 -1 -5 -6 -1 -13 5 -7 3 -8 -5 -3 -8 4 -25 -2
-43 -15 -17 -13 -27 -17 -23 -10 6 9 3 9 -14 1 -11 -7 -21 -17 -21 -24 0 -7
-4 -6 -10 3 -9 13 -14 8 -12 -12 1 -3 -5 -9 -14 -12 -8 -3 -12 -1 -9 4 3 6 -1
7 -9 4 -9 -3 -14 -10 -11 -14 3 -5 1 -11 -5 -15 -5 -3 -10 0 -10 7 0 8 -3 9
-8 3 -11 -16 -47 -41 -39 -28 4 6 2 15 -4 19 -8 4 -9 3 -5 -4 4 -7 2 -12 -4
-12 -6 0 -9 -4 -6 -9 3 -5 -1 -12 -10 -15 -10 -4 -13 -2 -9 7 4 6 -2 1 -13
-12 -15 -18 -21 -21 -25 -10 -4 11 -6 11 -6 1 -1 -7 -5 -10 -11 -7 -6 4 -7 -1
-3 -11 5 -13 2 -15 -16 -9 -15 4 -21 3 -19 -7 2 -7 -5 -12 -14 -12 -10 1 -18
-5 -19 -15 0 -11 -2 -12 -6 -3 -4 10 -9 7 -17 -9 -6 -12 -22 -29 -36 -38 -20
-13 -23 -14 -16 -1 5 8 -6 -1 -24 -20 -18 -19 -30 -30 -27 -24 4 6 0 11 -7 11
-8 0 -12 -7 -8 -15 3 -10 1 -13 -6 -8 -8 4 -12 0 -12 -11 0 -15 -2 -16 -10 -3
-8 13 -11 11 -16 -7 -4 -14 -11 -20 -22 -16 -11 5 -13 3 -7 -7 6 -10 4 -12 -8
-7 -9 3 -21 -1 -29 -11 -11 -13 -11 -15 2 -7 13 8 13 7 1 -9 -8 -10 -23 -15
-33 -12 -15 3 -17 1 -8 -9 8 -9 6 -14 -5 -19 -11 -4 -14 -2 -9 6 5 7 3 8 -5 4
-7 -5 -10 -14 -7 -22 4 -11 -1 -13 -20 -10 -21 4 -24 2 -14 -9 10 -12 8 -13
-9 -10 -19 3 -20 1 -10 -17 7 -12 7 -18 1 -14 -14 8 -43 -4 -36 -15 3 -5 1 -9
-5 -9 -6 0 -18 -12 -26 -27 -9 -16 -14 -20 -11 -10 3 9 9 25 12 35 3 9 -2 5
-11 -10 -8 -16 -20 -28 -26 -28 -6 0 -7 -5 -3 -12 5 -7 2 -9 -9 -5 -12 4 -14
2 -10 -10 5 -12 3 -14 -7 -8 -10 6 -12 4 -6 -10 5 -15 4 -16 -9 -5 -13 11 -14
10 -9 -5 5 -13 4 -16 -4 -11 -7 4 -12 1 -12 -7 0 -8 -7 -18 -16 -21 -9 -3 -12
-11 -8 -18 5 -8 2 -9 -11 -4 -15 5 -16 4 -6 -8 9 -11 9 -16 0 -22 -8 -5 -9 -3
-4 6 5 9 4 11 -4 6 -6 -4 -10 -13 -9 -19 2 -7 -2 -14 -7 -16 -18 -9 -33 -26
-28 -33 2 -5 -2 -8 -9 -8 -22 -1 -71 -57 -57 -66 8 -5 10 -3 4 6 -5 9 -4 11 4
6 6 -4 9 -12 5 -17 -3 -5 -10 -7 -15 -4 -5 4 -12 -1 -15 -9 -3 -9 -13 -16 -21
-16 -9 0 -13 -6 -9 -15 3 -9 0 -15 -10 -15 -9 0 -12 -5 -8 -12 5 -7 2 -9 -8
-6 -8 4 -15 0 -15 -8 0 -7 5 -11 11 -8 6 3 3 -1 -7 -9 -10 -9 -19 -19 -20 -24
-1 -4 -6 -7 -11 -5 -5 2 -3 -4 4 -13 11 -13 10 -15 -4 -9 -11 4 -16 1 -16 -10
0 -9 -5 -16 -11 -16 -6 0 -8 -7 -5 -16 6 -14 4 -15 -10 -3 -13 11 -15 11 -14
-2 4 -26 0 -40 -9 -34 -6 3 -8 -3 -6 -15 2 -11 -1 -19 -8 -17 -7 1 -12 -5 -12
-13 0 -8 -8 -21 -18 -28 -15 -12 -16 -17 -5 -30 7 -10 9 -14 4 -10 -5 4 -15 1
-22 -7 -17 -17 -18 -29 -2 -19 7 4 8 3 4 -4 -4 -7 -13 -12 -21 -12 -8 0 -17
-5 -21 -12 -5 -8 -1 -9 12 -4 13 4 9 -2 -10 -19 -16 -14 -24 -25 -18 -25 6 0
9 -7 6 -15 -4 -8 -10 -13 -14 -10 -4 2 -7 -6 -7 -19 0 -13 -10 -33 -22 -45
-12 -12 -19 -27 -15 -33 5 -8 1 -9 -12 -4 -15 6 -16 5 -7 -5 10 -10 9 -17 -5
-33 -9 -11 -11 -16 -4 -12 19 11 14 -1 -10 -24 -12 -11 -16 -20 -10 -20 7 0
12 -5 12 -11 0 -5 -4 -7 -10 -4 -5 3 -11 0 -11 -7 -1 -14 -5 -29 -9 -40 -4
-11 -7 -26 -9 -39 0 -5 -7 -7 -13 -3 -8 5 -7 0 2 -11 9 -11 10 -16 3 -11 -9 5
-13 -1 -14 -21 -1 -15 -1 -32 0 -36 1 -5 -3 -6 -9 -2 -9 5 -15 -15 -11 -37 0
-5 -5 -8 -11 -8 -9 0 -8 -4 2 -10 12 -8 12 -10 1 -10 -8 0 -11 -7 -8 -20 3
-11 2 -18 -3 -15 -13 8 -19 -22 -7 -35 9 -10 9 -11 -2 -5 -11 6 -13 3 -9 -13
4 -12 2 -22 -2 -22 -5 0 -7 -9 -5 -20 2 -13 -3 -21 -17 -26 -19 -6 -19 -7 -5
-16 16 -8 16 -11 1 -33 -12 -18 -13 -25 -4 -25 9 0 9 -4 3 -12 -10 -13 -13
-30 -15 -80 0 -16 -5 -28 -11 -28 -5 0 -7 -11 -5 -25 3 -14 2 -25 -1 -25 -4 0
-6 -26 -5 -57 1 -32 -3 -66 -8 -77 -7 -13 -7 -16 1 -12 16 10 13 0 -5 -18 -8
-9 -12 -16 -7 -16 4 0 7 -84 5 -187 -2 -144 0 -188 10 -194 10 -7 10 -9 -1 -9
-9 0 -10 -4 -4 -12 6 -7 10 -43 9 -81 -1 -37 2 -67 6 -67 4 0 5 -9 3 -20 -2
-11 -1 -20 3 -20 4 0 8 -8 9 -17 2 -52 8 -83 15 -83 5 0 4 -9 -2 -20 -9 -17
-8 -20 7 -20 15 0 16 -2 3 -10 -13 -9 -13 -10 0 -10 13 0 13 -1 0 -10 -13 -8
-12 -10 3 -10 19 0 24 -30 5 -31 -7 0 -3 -4 10 -10 15 -5 20 -13 16 -21 -9
-14 -12 -58 -4 -53 3 2 11 -9 17 -26 9 -22 8 -27 0 -22 -7 4 -5 -4 4 -18 12
-18 14 -30 7 -42 -5 -10 -6 -17 -1 -16 22 4 31 -3 26 -20 -2 -10 3 -25 12 -35
12 -12 13 -16 3 -16 -10 0 -9 -3 2 -10 8 -5 11 -10 6 -10 -5 0 -3 -7 4 -15 6
-8 8 -20 4 -26 -4 -7 -3 -9 3 -6 6 4 14 0 17 -9 3 -8 2 -13 -2 -10 -5 3 -9 -1
-9 -9 0 -8 3 -13 6 -11 3 2 11 -2 18 -9 10 -11 10 -15 0 -18 -9 -4 -9 -6 1 -6
6 -1 12 -9 12 -20 0 -10 6 -24 14 -30 16 -14 29 -54 14 -45 -5 3 -4 -3 4 -15
7 -12 16 -21 20 -21 5 0 8 -11 8 -25 0 -14 7 -28 16 -32 8 -3 13 -12 10 -20
-3 -8 -1 -11 4 -8 6 3 10 -3 10 -14 0 -12 5 -21 10 -21 6 0 10 -9 10 -20 0
-11 5 -20 10 -20 6 0 10 -8 10 -19 0 -10 9 -21 20 -24 13 -3 18 -10 14 -21 -4
-11 0 -16 12 -16 16 0 17 -2 4 -10 -13 -9 -13 -10 0 -10 13 0 13 -1 0 -10 -12
-8 -10 -10 9 -10 18 0 22 -4 18 -19 -3 -15 -1 -18 11 -14 10 4 13 2 8 -5 -4
-7 -1 -15 8 -18 8 -3 17 -13 20 -21 5 -13 4 -14 -9 -3 -13 11 -14 10 -9 -4 3
-9 15 -16 26 -16 14 0 18 -5 14 -16 -3 -8 -2 -12 4 -9 6 3 10 -4 11 -17 0 -13
3 -18 6 -11 3 10 7 10 18 0 9 -8 10 -16 3 -24 -7 -9 -4 -11 11 -8 12 2 20 -1
18 -8 -1 -7 3 -11 9 -10 7 1 10 -6 7 -17 -4 -14 0 -20 11 -20 9 0 16 -5 16
-11 0 -5 4 -8 9 -5 4 3 7 -5 6 -19 -2 -17 1 -22 11 -18 8 3 14 0 14 -7 0 -6 5
-8 11 -4 7 4 9 0 5 -14 -6 -17 -3 -20 16 -15 18 4 20 2 9 -5 -12 -9 -10 -13
11 -23 16 -7 24 -17 21 -25 -3 -8 2 -17 11 -20 9 -3 13 -10 10 -16 -3 -5 2 -8
12 -6 14 2 18 -2 16 -16 -2 -11 1 -15 7 -11 6 3 11 1 11 -5 0 -6 5 -8 10 -5 6
3 10 1 10 -5 0 -6 5 -8 13 -4 8 5 8 2 -2 -9 -12 -15 -11 -17 7 -17 25 0 48
-25 32 -35 -17 -10 10 -37 31 -32 11 3 17 0 16 -7 -1 -6 4 -10 12 -8 12 3 12
0 2 -12 -10 -12 -9 -14 7 -9 12 3 22 -2 26 -12 3 -9 11 -13 18 -9 8 5 9 2 5
-10 -4 -10 -3 -15 3 -11 9 6 14 -8 11 -28 0 -4 4 -7 9 -7 6 0 10 6 10 13 1 6
7 1 15 -13 8 -14 14 -19 15 -12 0 17 30 -11 30 -28 0 -7 8 -10 20 -7 10 3 19
2 18 -2 0 -3 0 -13 1 -21 1 -13 2 -13 12 0 9 12 10 11 6 -7 -5 -20 -3 -22 16
-11 12 6 19 7 15 3 -9 -10 14 -34 26 -27 5 3 6 -3 2 -13 -5 -15 -4 -16 9 -5
11 9 15 9 15 1 0 -7 5 -9 13 -5 7 5 6 0 -3 -11 -8 -10 -10 -16 -3 -12 6 4 19
0 27 -9 9 -8 16 -10 16 -4 0 7 5 6 14 -2 8 -7 11 -17 8 -23 -3 -5 3 -3 13 5
10 8 16 10 13 5 -4 -6 -2 -17 3 -25 8 -13 10 -13 19 0 8 13 10 13 10 -2 0 -9
5 -20 12 -24 7 -5 8 -3 3 5 -5 9 -1 9 14 -1 12 -7 21 -16 21 -20 0 -5 7 -8 16
-8 8 0 13 -4 10 -8 -2 -4 7 -9 22 -10 15 -1 29 -7 30 -12 2 -6 7 -8 12 -5 5 3
14 -1 22 -8 7 -8 25 -20 38 -27 23 -12 24 -12 11 4 -12 14 -12 16 1 11 9 -4
20 -16 26 -28 6 -12 11 -16 11 -9 1 10 5 10 17 -2 8 -9 12 -22 8 -28 -6 -10
-4 -11 7 0 16 14 33 16 24 2 -3 -6 1 -7 9 -4 9 3 16 1 16 -5 0 -6 9 -11 20
-11 11 0 20 -5 20 -12 0 -9 3 -9 11 -1 9 9 17 6 33 -8 12 -11 31 -19 46 -17
14 2 24 -2 23 -8 -1 -6 9 -10 23 -8 18 2 24 -2 20 -11 -3 -10 0 -12 11 -8 10
4 14 2 10 -4 -5 -7 0 -9 13 -6 11 3 27 0 35 -7 8 -6 19 -9 24 -6 5 4 12 2 16
-3 3 -6 12 -8 20 -4 10 3 15 -1 15 -13 0 -16 2 -17 10 -4 7 11 10 11 10 2 0
-7 5 -10 10 -7 6 3 10 0 10 -7 0 -9 3 -9 10 2 6 10 10 11 10 3 0 -8 13 -13 33
-13 18 0 39 -6 46 -12 11 -11 12 -10 6 2 -6 10 -1 8 13 -4 14 -12 22 -15 22
-6 0 8 6 10 18 5 9 -4 23 -8 29 -8 10 0 10 -3 0 -16 -10 -12 -9 -13 3 -6 19
12 91 7 109 -8 12 -10 13 -9 6 3 -6 10 -2 9 12 -3 13 -11 23 -14 27 -8 4 6 15
7 30 1 15 -5 27 -5 35 3 8 8 11 8 11 0 0 -6 7 -14 16 -17 10 -4 13 -2 8 7 -5
9 -4 9 7 -1 19 -18 629 -18 648 1 11 9 12 9 7 0 -5 -9 -2 -11 8 -7 9 3 16 10
16 15 0 5 11 4 25 -1 16 -6 26 -6 31 1 4 6 11 6 20 -2 11 -9 14 -9 14 0 0 7 5
9 10 6 6 -3 10 -1 10 6 0 7 10 9 25 7 14 -3 28 -2 31 3 2 4 11 6 19 2 8 -3 23
-2 32 3 19 8 33 11 71 16 12 1 22 5 22 8 0 5 33 10 78 13 6 0 12 5 12 11 0 6
5 4 10 -4 8 -12 10 -12 10 -1 0 9 8 12 25 9 14 -3 30 1 36 8 6 8 22 14 35 14
12 0 26 5 29 11 4 6 14 8 22 4 12 -4 13 -2 5 8 -10 11 -6 13 18 12 17 -1 31 4
35 13 4 12 8 12 22 1 9 -8 14 -9 10 -3 -7 12 23 26 59 27 14 1 20 6 17 15 -3
8 0 13 8 12 29 -4 50 0 44 9 -3 5 0 13 6 17 7 4 9 3 5 -4 -4 -6 1 -10 13 -9
11 0 18 4 15 8 -2 4 3 10 12 13 9 3 12 2 8 -5 -3 -6 3 -5 14 2 12 7 18 18 14
24 -3 5 2 4 11 -4 11 -9 17 -10 17 -2 0 6 6 11 14 11 8 0 18 5 22 12 5 7 3 8
-6 3 -9 -5 -11 -4 -6 4 6 9 11 9 22 0 12 -10 13 -9 7 7 -6 17 -5 18 12 4 11
-9 16 -10 11 -2 -5 8 2 12 23 12 17 0 31 5 31 11 0 5 5 7 10 4 13 -8 42 14 34
26 -3 5 2 6 10 3 8 -3 28 3 44 15 16 11 32 18 36 14 3 -3 6 -1 6 5 0 7 5 12
11 12 7 0 18 8 26 18 8 9 11 11 8 3 -8 -14 38 12 63 36 8 7 17 11 22 8 5 -3
11 4 15 15 4 11 11 17 17 14 7 -4 8 -2 4 5 -8 12 45 71 64 71 5 0 10 5 10 11
0 5 4 8 8 5 5 -3 20 6 35 20 15 14 27 21 27 17 0 -4 9 5 19 21 11 17 17 34 14
39 -3 6 -1 7 5 3 7 -4 12 -2 12 3 0 6 7 11 15 11 8 0 15 7 15 15 0 8 9 15 20
15 11 0 20 5 20 11 0 5 5 7 10 4 6 -3 10 1 10 10 0 10 5 13 12 9 8 -5 9 -2 5
9 -5 12 -1 17 13 17 10 0 22 5 26 12 5 7 3 8 -5 3 -10 -6 -11 -3 -2 14 7 11
18 21 26 21 13 0 19 11 17 31 -1 4 8 4 20 1 17 -4 20 -2 15 11 -3 9 -2 19 3
22 6 4 10 1 10 -5 0 -6 4 -9 10 -5 5 3 7 12 3 20 -3 9 1 15 11 15 9 0 16 5 16
11 0 5 -6 7 -12 3 -8 -4 -10 -3 -5 2 5 5 14 9 20 9 7 1 11 6 10 13 -2 7 3 11
10 9 6 -1 11 4 9 12 -2 8 3 11 11 8 7 -3 14 1 14 9 0 7 -5 10 -10 7 -6 -3 -7
-1 -3 5 4 7 13 12 20 12 8 0 20 8 27 18 13 16 13 16 -6 2 -20 -14 -20 -14 -1
7 10 13 23 20 27 17 5 -3 12 9 15 26 4 20 11 29 20 26 14 -5 27 20 18 35 -3 5
0 8 7 7 6 -2 14 3 17 11 3 9 0 11 -9 6 -8 -5 -11 -4 -6 1 5 5 12 9 17 9 4 0
20 12 34 28 14 15 21 27 16 27 -5 0 -16 -10 -24 -22 -9 -12 -16 -18 -16 -13 1
14 32 49 55 63 11 6 15 12 8 12 -12 0 -10 37 3 49 4 3 4 -2 1 -11 -8 -23 -2
-23 23 2 11 11 15 20 9 20 -5 0 -7 5 -4 10 4 6 11 7 17 4 7 -5 9 -1 5 9 -3 9
0 18 9 21 9 3 13 10 9 15 -3 5 5 17 17 27 15 10 17 14 6 11 -10 -4 -20 -1 -24
5 -4 6 -3 8 3 5 6 -4 17 1 24 10 12 14 12 16 0 8 -10 -5 -12 -4 -7 3 4 7 14
12 22 12 8 0 14 5 14 10 0 6 -5 10 -11 10 -6 0 -3 7 5 16 9 8 13 21 9 27 -4 7
2 5 12 -3 11 -9 16 -10 11 -2 -4 7 -2 12 6 12 9 0 9 3 -2 10 -14 9 -7 14 13
11 4 -1 3 8 -4 20 -9 17 -8 20 2 14 9 -6 11 -3 6 8 -4 12 -2 14 10 10 13 -5
14 -3 3 17 -7 12 -8 20 -3 17 4 -3 13 1 20 8 10 11 10 15 0 18 -9 4 -9 6 1 6
7 1 10 6 6 13 -5 8 -1 9 12 4 15 -6 16 -5 7 5 -10 10 -9 17 5 33 9 11 12 16 5
12 -8 -4 -8 2 2 20 8 15 12 31 9 36 -3 4 0 8 7 8 7 0 9 8 6 21 -3 12 0 22 9
26 8 3 11 9 8 14 -3 5 0 9 5 9 6 0 11 5 11 11 0 5 -6 7 -12 3 -7 -4 -5 2 5 13
14 16 15 22 5 26 -9 4 -7 6 4 6 11 1 15 6 12 15 -3 8 -1 17 5 21 15 9 14 28
-1 20 -7 -4 -4 1 6 9 11 9 17 19 13 22 -4 4 -2 13 4 20 7 8 7 14 -1 19 -8 5
-8 11 -1 19 6 7 12 21 14 32 1 10 7 25 11 33 7 11 6 12 -5 6 -12 -7 -12 -6 -1
7 7 9 11 22 10 29 -2 8 4 13 12 11 12 -3 12 -1 3 9 -9 9 -9 16 0 31 10 15 9
20 -2 27 -8 5 -9 11 -3 15 6 3 9 24 8 46 -2 21 1 37 6 34 7 -5 12 13 11 44 -1
6 3 12 7 12 4 0 7 29 6 65 -1 36 2 65 6 65 5 0 6 5 3 10 -11 17 -13 110 -3
110 5 0 6 5 3 10 -10 16 -13 150 -4 150 5 0 5 10 1 23 -4 12 -7 65 -7 117 0
71 -4 99 -15 110 -10 10 -15 34 -15 73 0 31 -3 57 -7 57 -4 0 -8 10 -8 23 0
62 -4 78 -18 72 -12 -4 -12 -2 -4 8 9 10 8 17 0 25 -8 8 -9 12 -1 12 6 0 9 9
6 20 -3 11 -10 20 -15 20 -5 0 -7 14 -4 30 2 17 1 28 -4 25 -4 -3 -11 2 -14
11 -3 8 -2 13 2 10 5 -3 9 1 9 9 0 8 -4 12 -9 9 -8 -5 -12 17 -9 44 1 6 -3 12
-9 12 -6 0 -8 11 -6 24 3 16 0 23 -7 20 -7 -2 -13 8 -14 28 -1 17 -6 34 -11
37 -11 7 -24 40 -28 66 -2 22 -26 87 -34 95 -3 3 -14 16 -25 30 -19 23 -19 24
-1 10 18 -14 19 -14 7 8 -6 12 -17 22 -24 22 -7 0 -6 4 3 10 8 5 10 10 4 10
-7 0 -15 11 -18 25 -4 14 -11 25 -16 25 -5 0 -7 7 -4 15 4 8 -1 17 -9 21 -9 3
-13 12 -10 21 4 11 2 14 -5 9 -7 -4 -12 -1 -12 9 0 10 -5 13 -12 9 -8 -5 -7 0
2 11 9 11 10 16 3 11 -8 -4 -13 -1 -13 9 0 10 -5 13 -12 9 -6 -4 -8 -3 -4 4 3
6 2 13 -4 17 -6 4 -8 11 -5 16 4 5 -2 6 -12 2 -15 -6 -16 -4 -5 9 10 13 10 18
1 24 -8 4 -9 3 -5 -4 4 -7 5 -12 2 -12 -7 0 -36 61 -36 75 0 7 -7 16 -16 19
-8 3 -13 9 -11 13 7 11 -19 33 -28 25 -4 -4 -6 -2 -5 3 4 20 0 36 -9 31 -5 -3
-12 5 -15 19 -4 17 -11 23 -23 18 -10 -4 -14 -2 -10 4 4 6 1 18 -7 26 -8 8
-12 18 -8 22 4 5 -1 6 -10 2 -10 -3 -19 0 -22 9 -4 10 -2 12 6 8 6 -4 3 4 -8
18 -13 18 -23 23 -31 16 -8 -6 -10 -3 -6 11 4 16 1 21 -13 21 -9 0 -14 3 -11
7 4 3 -2 13 -13 20 -11 8 -18 19 -15 24 4 5 1 9 -5 9 -6 0 -8 5 -4 13 6 8 3 8
-9 -1 -14 -12 -16 -11 -12 8 3 17 1 20 -13 15 -9 -3 -13 -3 -9 1 4 5 -3 14
-15 21 l-23 14 25 -7 c24 -6 24 -6 5 9 -11 8 -23 13 -27 11 -3 -2 -9 5 -13 16
-4 11 -11 17 -17 14 -6 -4 -6 2 1 15 10 17 9 20 -4 15 -9 -4 -24 1 -34 10 -10
9 -21 13 -25 9 -4 -5 -7 -3 -6 2 7 33 -1 46 -22 40 -13 -3 -18 -3 -13 2 18 15
15 33 -5 33 -11 0 -20 5 -20 10 0 6 -5 10 -11 10 -5 0 -7 -5 -3 -12 4 -7 3 -8
-4 -4 -6 4 -8 14 -5 23 4 11 3 14 -5 9 -7 -4 -12 -2 -12 4 0 6 -5 8 -11 4 -8
-4 -9 1 -5 17 3 13 3 18 0 12 -3 -7 -10 -13 -15 -13 -6 0 -7 5 -3 12 5 8 2 9
-9 5 -9 -3 -16 -3 -14 1 1 4 -7 18 -17 32 -13 17 -16 19 -12 6 5 -16 4 -17 -9
-6 -8 7 -12 17 -8 23 4 6 0 8 -10 4 -12 -4 -17 -1 -17 11 0 15 -2 15 -10 2 -8
-12 -10 -10 -11 10 0 14 -3 19 -6 11 -4 -10 -11 -7 -27 11 -11 13 -17 18 -12
11 5 -8 7 -16 4 -18 -3 -3 -11 6 -18 20 -7 14 -22 25 -32 25 -10 0 -18 7 -18
16 0 8 -4 12 -10 9 -5 -3 -10 -1 -10 4 0 6 -9 11 -21 11 -11 0 -17 5 -14 10 3
6 -2 10 -12 10 -10 0 -31 11 -47 25 -17 14 -36 23 -43 20 -8 -2 -12 -1 -10 3
3 4 -1 13 -9 20 -10 9 -14 10 -14 1 0 -7 -8 -3 -17 8 -10 11 -28 19 -40 18
-15 -1 -20 3 -18 16 3 13 -1 16 -12 12 -10 -4 -14 -2 -10 4 4 6 -3 10 -16 9
-13 -1 -21 4 -20 12 2 6 -2 12 -7 12 -6 0 -10 -6 -10 -12 -1 -7 -6 -4 -13 8
-7 12 -18 19 -24 17 -7 -3 -13 1 -13 9 0 10 -3 9 -10 -2 -8 -12 -10 -12 -16 3
-3 10 -17 17 -31 17 -17 0 -22 4 -17 13 5 7 0 6 -11 -3 -11 -9 -16 -10 -11 -2
5 8 1 12 -13 12 -10 0 -21 4 -23 10 -1 5 -15 11 -30 12 -16 1 -28 6 -28 10 0
4 -8 8 -18 8 -10 0 -24 6 -31 13 -10 8 -12 8 -7 0 3 -6 2 -15 -4 -18 -6 -4
-10 -3 -9 2 3 20 -2 34 -11 28 -5 -3 -10 -1 -10 4 0 6 -5 11 -11 11 -5 0 -7
-6 -4 -12 4 -7 1 -6 -7 3 -7 9 -21 15 -30 13 -10 -1 -18 3 -18 9 0 7 -5 5 -10
-3 -5 -8 -10 -10 -10 -4 0 6 -12 16 -26 22 -20 10 -24 10 -18 0 6 -10 5 -11
-8 -1 -8 7 -18 10 -21 6 -4 -3 -7 0 -7 8 0 11 -2 11 -9 1 -7 -11 -11 -11 -24
2 -11 12 -17 13 -20 3 -4 -9 -6 -9 -6 1 -1 7 -15 12 -35 12 -18 0 -46 7 -62
15 -18 9 -32 11 -40 4 -8 -6 -16 -4 -24 7 -8 8 -22 13 -32 11 -10 -3 -18 0
-18 6 0 8 -3 8 -11 0 -7 -7 -21 -8 -40 -3 -16 5 -29 6 -29 2 0 -4 -5 1 -11 11
-7 13 -14 15 -23 8 -7 -6 -17 -6 -26 -1 -9 5 -19 5 -26 -1 -8 -7 -14 -6 -19 1
-5 8 -11 8 -21 -1 -11 -9 -15 -8 -20 5 -5 14 -9 14 -22 4 -11 -9 -14 -9 -9 -1
6 9 -41 12 -203 12 -132 0 -208 -3 -205 -9z m-2360 -3959 c3 -5 2 -12 -3 -15
-5 -3 -9 1 -9 9 0 17 3 19 12 6z m590 -809 c-3 -3 -11 0 -18 7 -9 10 -8 11 6
5 10 -3 15 -9 12 -12z"/>
<path d="M2790 6980 c-8 -5 -12 -12 -9 -15 4 -3 12 1 19 10 14 17 11 19 -10 5z"/>
<path d="M6375 6660 c3 -5 8 -10 11 -10 2 0 4 5 4 10 0 6 -5 10 -11 10 -5 0
-7 -4 -4 -10z"/>
<path d="M2390 2716 c0 -2 7 -7 16 -10 8 -3 12 -2 9 4 -6 10 -25 14 -25 6z"/>
</g>
</svg>
