<?xml version="1.0" encoding="utf-8"?>
<svg xmlns="http://www.w3.org/2000/svg" height="128" width="128" viewBox="0 0 128 128">
  <g>
    <path id="path1" transform="rotate(0,64,64) translate(11,24.243375480175) scale(3.3125,3.3125)  " fill="#982E36" d="M12.002991,5.9990174L12.002991,18.004985 22.006958,12.002001z M16.011841,1.3656972E-08C16.216225,-6.8572726E-06 22.790932,0.0024320725 27.199951,0.34399512 27.824951,0.42199772 29.191956,0.43103092 30.409973,1.7890005 31.368958,2.8259866 31.677002,5.1769969 31.677002,5.1769969 31.677002,5.1769969 32,7.9420082 32,10.704029L32,13.291978C32,16.054974 31.677002,18.814004 31.677002,18.814004 31.677002,18.814004 31.367981,21.17002 30.409973,22.204015 29.192993,23.561986 27.824951,23.569005 27.199951,23.648959 22.720947,23.991976 15.997986,24.004 15.997986,24.004 15.997986,24.004 7.6789551,23.923983 5.1199951,23.661959 4.407959,23.52097 2.8079834,23.561009 1.5899658,22.202 0.63098145,21.168006 0.31994629,18.814004 0.31994629,18.814004 0.31994629,18.814004 0,16.056012 0,13.291978L0,10.702015C0,7.9399941 0.31994629,5.1769969 0.31994629,5.1769969 0.31994629,5.1769969 0.63098145,2.8259866 1.5899658,1.7890005 2.8079834,0.43103092 4.1719971,0.42199772 4.7969971,0.34399512 9.2049561,0.0029918786 15.780945,1.1595421E-06 15.984985,9.6733129E-07L15.98999,9.6733129E-07 16.006958,9.6733129E-07C16.006958,1.1595421E-06,16.008596,4.2938518E-07,16.011841,1.3656972E-08z" />
  </g>
</svg>

